<svg width="353" height="344" viewBox="0 0 353 344" fill="none" xmlns="http://www.w3.org/2000/svg">
<path fill-rule="evenodd" clip-rule="evenodd" d="M118 0V34.0743V107.074C118 139.659 144.415 166.074 177 166.074C209.585 166.074 236 139.659 236 107.074V34.0743V0.354585C304.204 24.7715 353 89.9744 353 166.574C353 264.053 273.978 343.074 176.5 343.074C79.0217 343.074 0 264.053 0 166.574C0 89.6005 49.2738 24.1353 118 0Z" fill="#4BCA6B"/>
<path fill-rule="evenodd" clip-rule="evenodd" d="M118 59.326V107.074C118 139.659 144.415 166.074 177 166.074C209.585 166.074 236 139.659 236 107.074V59.326C273.566 80.2063 299 120.408 299 166.574C299 234.229 244.379 289.074 177 289.074C109.621 289.074 55 234.229 55 166.574C55 120.408 80.434 80.2063 118 59.326Z" fill="#21A045"/>
<path fill-rule="evenodd" clip-rule="evenodd" d="M236 59.326C218.515 49.6071 198.401 44.0742 177 44.0742C155.599 44.0742 135.485 49.6071 118 59.326V108.074V109.074C118 141.659 144.415 168.074 177 168.074C209.585 168.074 236 141.659 236 109.074V108.074V59.326Z" fill="#3EC560"/>
</svg>
